{"title":"Rockin' With Judy Jetson DVDrip [Pixar]","uid":12171213,"size":1137292207,"categoryP":"video","categoryS":"tv_shows","magnet":"?xt=urn:btih:094c573791bebabcbb4da05f816aaa6e080c2b06&amp;dn=Rockin%27+With+Judy+Jetson+DVDrip+%5BPixar%5D&amp;tr=udp%3A%2F%2Ftracker.openbittorrent.com%3A80&amp;tr=udp%3A%2F%2Fopen.demonii.com%3A1337&amp;tr=udp%3A%2F%2Ftracker.coppersurfer.tk%3A6969&amp;tr=udp%3A%2F%2Fexodus.desync.com%3A6969","seeders":0,"leechers":1,"uploader":"ErnieHarris","files":1,"time":1438192892,"description":"Rockin' With Judy Jetson (1988)\n\nA hip rock star has stolen Judy Jetson's heart, so she joins two of\nher girl friends at his concert, following close behind her is George,\nwho's turned his hair into a Mohawk. But an evil witch who hates music\nhas kidnapped the rock star, so Judy and her friends go off to rescue\nhim and George get's thrown in jail. Elroy and Astro come to the\nrescue, but are stuck with a difficult question - who do they save\nfirst? George or Judy? Even Jane, Rosie and Mr. Spacely are along for\nthe fun as the teenage adolescent Jetson daughter goes to heroic\nheights to battle the evil witch and join her rock star companion and\npossibly perform on stage with him. \n\nFormat                      : Matroska\nFormat version              : Version 4 / Version 2\nFile size                   : 1.06 GiB\nDuration                    : 1h 32mn\nOverall bit rate            : 1 648 Kbps\nEncoded date                : UTC 2014-05-13 21:59:41\nWriting application         : mkvmerge v6.9.1 ('Blue Panther') 32bit built on Apr 18 2014 18:15:44\nWriting library             : libebml v1.3.0 + libmatroska v1.4.1\n\nVideo\nID                          : 1\nFormat                      : AVC\nFormat/Info                 : Advanced Video Codec\nFormat profile              : &lt;a class=&quot;__cf_email__&quot; href=&quot;/cdn-cgi/l/email-protection&quot; data-cfemail=&quot;0941606e6149453a2738&quot;&gt;[email&amp;#160;protected]&lt;/a&gt;&lt;script data-cfhash='f9e31' type=&quot;text/javascript&quot;&gt;\n/* &lt;![CDATA[ */!function(){try{var t=&quot;currentScript&quot;in document?document.currentScript:function(){for(var t=document.getElementsByTagName(&quot;script&quot;),e=t.length;e--;)if(t[e].getAttribute(&quot;data-cfhash&quot;))return t[e]}();if(t&amp;&amp;t.previousSibling){var e,r,n,i,c=t.previousSibling,a=c.getAttribute(&quot;data-cfemail&quot;);if(a){for(e=&quot;&quot;,r=parseInt(a.substr(0,2),16),n=2;a.length-n;n+=2)i=parseInt(a.substr(n,2),16)^r,e+=String.fromCharCode(i);e=document.createTextNode(e),c.parentNode.replaceChild(e,c)}t.parentNode.removeChild(t);}}catch(u){}}()/* ]]&gt; */&lt;/script&gt;\nFormat settings, CABAC      : Yes\nFormat settings, ReFrames   : 9 frames\nCodec ID                    : V_MPEG4/ISO/AVC\nDuration                    : 1h 32mn\nBit rate                    : 1 423 Kbps\nWidth                       : 704 pixels\nHeight                      : 476 pixels\nDisplay aspect ratio        : 4:3\nOriginal display aspect rat : 4:3\nFrame rate mode             : Constant\nFrame rate                  : 23.976 fps\nColor space                 : YUV\nChroma subsampling          : 4:2:0\nBit depth                   : 8 bits\nScan type                   : Progressive\nBits/(Pixel*Frame)          : 0.177\nStream size                 : 937 MiB (86%)\nWriting library             : x264 core 133 r2334 a3ac64b\nEncoding settings           : cabac=1 / ref=9 / deblock=1:2:-2 / analyse=0x3:0x113 / me=umh / subme=8 / psy=1 / psy_rd=1.00:0.00 / mixed_ref=1 / me_range=24 / chroma_me=1 / trellis=2 / 8x8dct=1 / cqm=0 / deadzone=21,11 / fast_pskip=1 / chroma_qp_offset=-4 / threads=4 / lookahead_threads=1 / sliced_threads=0 / nr=0 / decimate=1 / interlaced=0 / bluray_compat=0 / constrained_intra=0 / bframes=3 / b_pyramid=2 / b_adapt=2 / b_bias=0 / direct=3 / weightb=1 / open_gop=0 / weightp=2 / keyint=250 / keyint_min=23 / scenecut=40 / intra_refresh=0 / rc_lookahead=40 / rc=crf / mbtree=1 / crf=21.0 / qcomp=0.60 / qpmin=0 / qpmax=69 / qpstep=4 / ip_ratio=1.40 / aq=1:1.00\nDefault                     : Yes\nForced                      : No\n\nAudio\nID                          : 2\nFormat                      : AC-3\nFormat/Info                 : Audio Coding 3\nMode extension              : CM (complete main)\nFormat settings, Endianness : Big\nCodec ID                    : A_AC3\nDuration                    : 1h 32mn\nBit rate mode               : Constant\nBit rate                    : 192 Kbps\nChannel(s)                  : 2 channels\nChannel positions           : Front: L R\nSampling rate               : 48.0 KHz\nCompression mode            : Lossy\nDelay relative to video     : 12ms\nStream size                 : 126 MiB (12%)\nDefault                     : Yes\nForced                      : No","torrent":{"xt":"urn:btih:094c573791bebabcbb4da05f816aaa6e080c2b06","amp;dn":"Rockin%27+With+Judy+Jetson+DVDrip+%5BPixar%5D","amp;tr":["udp%3A%2F%2Ftracker.openbittorrent.com%3A80","udp%3A%2F%2Fopen.demonii.com%3A1337","udp%3A%2F%2Ftracker.coppersurfer.tk%3A6969","udp%3A%2F%2Fexodus.desync.com%3A6969"],"infoHash":"094c573791bebabcbb4da05f816aaa6e080c2b06","infoHashBuffer":{"type":"Buffer","data":[9,76,87,55,145,190,186,188,187,77,160,95,129,106,170,110,8,12,43,6]},"announce":[],"urlList":[]}}